:SAMPLES-PER-SECOND 30
:FULLY-SPECIFIED
:DEGREES
16
root  77.8222 40.2695 19.1193 -152.656 -89.3793 154.048
RightUpLeg  -2.15311 -7.01134 -3.41398
RightLeg  6.73115 -2.29467 2.46251
RightFoot  -7.44475 -0.0689883 0.538914
RightToes  1.74622e-010 0 -3.6325e-017
Spine  0.920298 -0.211304 1.11677
Spine1  4.74344 -0.171604 -0.416613
HEad  -2.34693 -2.19145 -2.05339
LeftShoulder1  9.59338 -10.5034 -59.1808
LeftArm  -125.5 -13.9099 -26.0028
LeftForeArm  -63.0573 -70.9155 -156.717
LeftHand  -0.244104 0.0205437 5.32207
RightShoulder  0.934724 0.812208 14.809
RightArm  -19.234 -5.3595 2.64953
RightForeArm  -6.70803 8.35331 4.60934
RightHand  -1.27369 3.13797 -17.4725
LeftUpLeg  -0.522042 5.55923 3.30588
LeftLeg  2.75794 9.83624 -4.15198
LeftFoot  -4.44626 0.0406244 -0.211381
LeftToes  -2.63786e-011 -1.12672e-010 -2.07835e-011
17
root  77.7005 40.247 19.0352 -135.663 -89.4715 136.712
RightUpLeg  -1.70349 -7.25596 -3.4649
RightLeg  7.24209 -2.18401 2.35317
RightFoot  -8.63112 -0.0802593 0.921396
RightToes  1.74622e-010 0 -3.6325e-017
Spine  0.342135 -0.407145 1.10172
Spine1  6.25374 -0.459341 -0.105315
HEad  -2.36869 -0.53603 -3.22539
LeftShoulder1  10.8943 -11.7456 -61.7186
LeftArm  -134.906 -13.0357 -29.9391
LeftForeArm  -71.5449 -65.9171 -156.918
LeftHand  -0.244104 0.0205437 5.32207
RightShoulder  1.37031 2.03727 18.1642
RightArm  -19.2409 -6.81411 4.09609
RightForeArm  -6.11233 11.1684 4.81391
RightHand  -1.21318 2.97113 -16.9594
LeftUpLeg  -0.105674 5.55916 3.3524
LeftLeg  3.09874 9.66933 -3.99689
LeftFoot  -4.83915 0.0531146 -0.399187
LeftToes  -2.63786e-011 -1.12672e-010 -2.07835e-011
18
root  77.5371 40.2191 18.9358 -125.525 -89.4544 126.468
RightUpLeg  -1.48551 -7.42474 -3.43015
RightLeg  7.79608 -2.01785 2.21191
RightFoot  -9.80032 -0.0847543 1.36994
RightToes  1.74622e-010 0 -3.6325e-017
Spine  -0.638141 -0.601322 1.19089
Spine1  7.79338 -0.79464 0.343855
HEad  -1.749 1.23519 -4.57449
LeftShoulder1  7.49941 -8.72475 -52.0448
LeftArm  -151.005 -5.95707 -46.2109
LeftForeArm  -77.4774 -46.5174 -163.744
LeftHand  -0.244104 0.0205437 5.32207
RightShoulder  2.00624 3.70597 21.5007
RightArm  -18.62 -8.21093 6.05534
RightForeArm  -3.99312 12.8981 4.79801
RightHand  -1.04878 2.40936 -15.7423
LeftUpLeg  0.0887451 5.53432 3.41286
LeftLeg  3.52415 9.53753 -3.81743
LeftFoot  -5.40367 0.0647278 -0.622954
LeftToes  -2.63786e-011 -1.12672e-010 -2.07835e-011
19
root  77.3413 40.1816 18.8211 -123.345 -89.3313 124.316
RightUpLeg  -1.43216 -7.53341 -3.34944
RightLeg  8.41231 -1.78869 2.01892
RightFoot  -10.9362 -0.080358 1.6997
RightToes  1.74622e-010 0 -3.6325e-017
Spine  -1.53161 -0.51778 1.7678
Spine1  8.72608 -0.628082 -0.0804397
HEad  -0.744167 2.30338 -5.3817
LeftShoulder1  3.59252 -6.40239 -30.9534
LeftArm  -105.083 22.4478 -24.5939
LeftForeArm  -1.41537 -77.2436 92.54
LeftHand  -0.244104 0.0205437 5.32207
RightShoulder  2.77019 5.16131 25.8841
RightArm  -17.8843 -9.64022 7.88551
RightForeArm  -1.7543 13.3853 4.72696
RightHand  -0.946624 2.12427 -14.7649
LeftUpLeg  0.100849 5.50017 3.46048
LeftLeg  4.12753 9.49148 -3.60937
LeftFoot  -6.03713 0.0921439 -1.20859
LeftToes  -2.63786e-011 -1.12672e-010 -2.07835e-011
20
root  77.1234 40.1288 18.6853 -122.406 -89.1483 123.243
RightUpLeg  -1.24307 -7.60148 -3.2541
RightLeg  9.10086 -1.52128 1.77809
RightFoot  -11.9419 -0.0726338 1.62841
RightToes  1.74622e-010 0 -3.6325e-017
Spine  -1.87459 -0.190873 2.76449
Spine1  9.14284 0.037553 -1.41122
HEad  0.34376 2.50427 -5.34378
LeftShoulder1  4.89368 -8.01372 -36.3517
LeftArm  29.3963 9.796 1.35914
LeftForeArm  -30.8186 -18.1735 -14.2916
LeftHand  -0.244104 0.0205437 5.32207
RightShoulder  3.62686 6.20312 31.4071
RightArm  -17.1585 -10.8815 9.40085
RightForeArm  -0.451485 12.8943 4.73495
RightHand  -0.881362 2.0186 -13.9506
LeftUpLeg  0.074027 5.61759 3.45785
LeftLeg  5.26054 9.52196 -3.17529
LeftFoot  -6.74234 0.11344 -1.8097
LeftToes  -2.63786e-011 -1.12672e-010 -2.07835e-011
